<svg width="32" height="32" viewBox="0 0 32 32" fill="none" xmlns="http://www.w3.org/2000/svg">
<g clip-path="url(#clip0_2696_724)">
<g clip-path="url(#clip1_2696_724)">
<path d="M1.71484 19.9994C1.71484 20.315 1.9707 20.5709 2.28627 20.5709H29.7148C30.0304 20.5709 30.2863 20.315 30.2863 19.9994V2.28516H1.71484V19.9994Z" fill="#E74040"/>
<path d="M31.4286 0H0.571429C0.255859 0 0 0.255859 0 0.571429C0 0.886998 0.255859 1.14286 0.571429 1.14286H31.4286C31.7441 1.14286 32 0.886998 32 0.571429C32 0.255859 31.7441 0 31.4286 0Z" fill="#E74040"/>
<path d="M20.572 29.7148H16.572V22.8577H17.1434C17.459 22.8577 17.7148 22.6018 17.7148 22.2863V21.7148H14.2863V22.2863C14.2863 22.6018 14.5421 22.8577 14.8577 22.8577H15.4291V29.7148H11.4291C10.4824 29.7148 9.71484 30.4824 9.71484 31.4291V32.0006H22.2863V31.4291C22.2863 30.4824 21.5187 29.7148 20.572 29.7148Z" fill="#E74040"/>
</g>
</g>
<defs>
<clipPath id="clip0_2696_724">
<rect width="32" height="32" fill="white"/>
</clipPath>
<clipPath id="clip1_2696_724">
<rect width="32" height="32" fill="white"/>
</clipPath>
</defs>
</svg>
